<svg width="32" height="32" viewBox="0 0 32 32" fill="none" xmlns="http://www.w3.org/2000/svg">
<path d="M2.66666 28C2.66666 24 5.13332 20.8533 9.43999 20C12.6667 19.36 16 17.3333 17.3333 16M14.6667 26.6666C12.3254 26.6737 10.067 25.8006 8.33935 24.2205C6.6117 22.6404 5.54101 20.4687 5.33964 18.1361C5.13826 15.8035 5.82091 13.4804 7.25219 11.6276C8.68347 9.77479 10.7588 8.52756 13.0667 8.13329C20.6667 6.66663 22.6667 5.97329 25.3333 2.66663C26.6667 5.33329 28 8.23996 28 13.3333C28 20.6666 21.6267 26.6666 14.6667 26.6666Z" stroke="#188734" stroke-width="2" stroke-linecap="round" stroke-linejoin="round"/>
</svg>
